<svg width="20" height="20" viewBox="0 0 20 20" fill="none" xmlns="http://www.w3.org/2000/svg" transform="translate(0, 0)">
<g id="22">
<g id="Clip path group">
<mask id="mask0_327_6873" style="mask-type:luminance" maskUnits="userSpaceOnUse" x="7" y="4" width="10" height="16">
<g id="7f3ebc36c2">
<path id="Vector" d="M7.14673 4.22656H16.5308V19.5507H7.14673V4.22656Z" fill="white"/>
</g>
</mask>
<g mask="url(#mask0_327_6873)">
<g id="Group">
<path id="Vector_2" d="M15.4793 10.8672H15.484C15.484 10.8672 13.7277 13.4433 12.2509 15.358C10.9744 17.0118 10.6017 18.428 10.4946 19.1128C10.4526 19.3643 10.2477 19.5507 10.0008 19.5507C9.75383 19.5507 9.54888 19.3643 9.50695 19.1128C9.39977 18.428 9.02711 17.0118 7.7506 15.358C7.55492 15.1018 7.35461 14.8363 7.1543 14.5661L11.976 8.83606L15.8567 4.2334C16.2853 5.13251 16.5229 6.13876 16.5229 7.20559C16.5229 8.55652 16.1362 9.8097 15.4793 10.8672Z" fill="#48B564"/>
</g>
</g>
</g>
<path id="Vector_3" d="M11.976 8.83618L7.15426 14.5662C5.84051 12.8052 4.51743 10.8673 4.51743 10.8673H4.52212C4.38233 10.6437 4.25655 10.4155 4.14941 10.1779L8.02546 5.5752C7.65738 6.0178 7.43842 6.58613 7.43842 7.20572C7.43842 8.62191 8.58447 9.7679 10.0007 9.7679C10.7973 9.7679 11.5101 9.40452 11.976 8.83618Z" fill="#FCC60E"/>
<g id="Clip path group_2">
<mask id="mask1_327_6873" style="mask-type:luminance" maskUnits="userSpaceOnUse" x="5" y="0" width="8" height="6">
<g id="fc7f22f486">
<path id="Vector_4" d="M5 0.450684H12.0533V5.54657H5V0.450684Z" fill="white"/>
</g>
</mask>
<g mask="url(#mask1_327_6873)">
<g id="Group_2">
<path id="Vector_5" d="M12.0505 0.795423L8.05805 5.53782L5.00195 2.87313C6.19456 1.39173 7.99279 0.450684 10.0007 0.450684C10.7182 0.450684 11.4076 0.571829 12.0505 0.795423Z" fill="#2C85EB"/>
</g>
</g>
</g>
<g id="Clip path group_3">
<mask id="mask2_327_6873" style="mask-type:luminance" maskUnits="userSpaceOnUse" x="3" y="2" width="6" height="9">
<g id="37d730e775">
<path id="Vector_6" d="M3.4707 2.8667H8.06664V10.1867H3.4707V2.8667Z" fill="white"/>
</g>
</mask>
<g mask="url(#mask2_327_6873)">
<g id="Group_3">
<path id="Vector_7" d="M8.05799 5.53773L8.02539 5.57497L4.14935 10.1776C3.72076 9.27852 3.47852 8.27227 3.47852 7.20549C3.47852 5.55638 4.05154 4.04232 5.0019 2.87305L8.05799 5.53773Z" fill="#ED5748"/>
</g>
</g>
</g>
<path id="Vector_8" d="M11.9759 8.83604C12.3439 8.39348 12.5629 7.82515 12.5629 7.20557C12.5629 5.78937 11.4169 4.64338 10.0007 4.64338C9.20404 4.64338 8.49122 5.00671 8.02539 5.57505L12.0504 0.79541C13.7229 1.36374 15.0926 2.61687 15.8566 4.23338L11.9759 8.83604Z" fill="#5695F6"/>
</g>
</svg>
