<svg width="179" height="179" viewBox="0 0 179 179" fill="none" xmlns="http://www.w3.org/2000/svg">
<g id="QR" clip-path="url(#clip0_283_7016)">
<path id="Vector" d="M0 21.6035V43.2069H43.2069V0H0V21.6035ZM37.0345 21.6035V37.0345H6.17241V6.17241H37.0345V21.6035ZM12.3448 21.6035V30.8621H30.8621V12.3448H12.3448V21.6035ZM55.5517 3.08621V6.17241H49.3793V18.5172H55.5517V37.0345H61.7241V43.2069H49.3793V49.3793H24.6897V55.5517H30.8621V61.7241H18.5172V49.3793H12.3448V55.5517H0V61.7241H12.3448V74.069H6.17241V67.8966H0V80.2414H12.3448V74.069H18.5172V67.8966H24.6897V74.069H30.8621V67.8966H43.2069V74.069H37.0345V80.2414H18.5172V86.4138H37.0345V92.5862H18.5172V98.7586H12.3448V92.5862H0V111.103H6.17241V104.931H43.2069V111.103H37.0345V117.276H24.6897V111.103H18.5172V117.276H6.17241V129.621H18.5172V117.276H24.6897V123.448H37.0345V129.621H43.2069V123.448H37.0345V117.276H43.2069V111.103H49.3793V123.448H55.5517V129.621H49.3793V148.138H61.7241V141.966H67.8966V135.793H61.7241V129.621H67.8966V92.5862H55.5517V98.7586H49.3793V92.5862H43.2069V86.4138H37.0345V80.2414H43.2069V74.069H49.3793V67.8966H61.7241V74.069H55.5517V80.2414H49.3793V86.4138H61.7241V74.069H67.8966V86.4138H74.069V74.069H80.2414V92.5862H86.4138V98.7586H92.5862V92.5862H86.4138V86.4138H92.5862V80.2414H111.103V86.4138H104.931V92.5862H98.7586V104.931H92.5862V111.103H98.7586V117.276H104.931V123.448H98.7586V129.621H92.5862V117.276H86.4138V123.448H80.2414V117.276H74.069V123.448H80.2414V129.621H74.069V148.138H67.8966V154.31H74.069V148.138H80.2414V172.828H86.4138V160.483H98.7586V166.655H92.5862V179H104.931V172.828H98.7586V166.655H111.103V172.828H117.276V179H129.621V160.483H117.276V166.655H111.103V154.31H117.276V135.793H123.448V141.966H129.621V111.103H141.966V117.276H135.793V129.621H148.138V111.103H160.483V117.276H154.31V129.621H160.483V117.276H166.655V123.448H179V111.103H172.828V117.276H166.655V111.103H160.483V92.5862H166.655V86.4138H160.483V80.2414H148.138V74.069H141.966V67.8966H129.621V74.069H123.448V80.2414H117.276V67.8966H123.448V61.7241H141.966V55.5517H154.31V61.7241H148.138V67.8966H154.31V74.069H160.483V67.8966H166.655V61.7241H172.828V74.069H166.655V80.2414H179V61.7241H172.828V49.3793H179V37.0345H172.828V18.5172H179V12.3448H160.483V0H141.966V6.17241H154.31V12.3448H141.966V24.6897H135.793V12.3448H129.621V6.17241H135.793V0H123.448V18.5172H117.276V6.17241H111.103V12.3448H104.931V37.0345H111.103V18.5172H117.276V37.0345H123.448V49.3793H117.276V55.5517H111.103V61.7241H117.276V67.8966H111.103V74.069H104.931V49.3793H111.103V43.2069H98.7586V30.8621H92.5862V18.5172H98.7586V12.3448H92.5862V6.17241H104.931V0H92.5862V6.17241H86.4138V12.3448H80.2414V0H55.5517V3.08621ZM74.069 12.3448V18.5172H80.2414V37.0345H67.8966V30.8621H74.069V24.6897H61.7241V18.5172H55.5517V12.3448H61.7241V6.17241H74.069V12.3448ZM160.483 18.5172V24.6897H166.655V37.0345H172.828V43.2069H166.655V61.7241H160.483V43.2069H166.655V37.0345H160.483V30.8621H154.31V12.3448H160.483V18.5172ZM129.621 21.6035V24.6897H123.448V18.5172H129.621V21.6035ZM92.5862 33.9483V37.0345H86.4138V30.8621H92.5862V33.9483ZM148.138 40.1207V49.3793H129.621V30.8621H148.138V40.1207ZM135.793 40.1207V43.2069H141.966V37.0345H135.793V40.1207ZM86.4138 46.2931V49.3793H98.7586V55.5517H86.4138V61.7241H80.2414V55.5517H86.4138V49.3793H74.069V55.5517H67.8966V49.3793H61.7241V55.5517H55.5517V61.7241H49.3793V67.8966H43.2069V61.7241H37.0345V55.5517H43.2069V61.7241H49.3793V55.5517H55.5517V49.3793H61.7241V43.2069H86.4138V46.2931ZM67.8966 64.8103V67.8966H61.7241V61.7241H67.8966V64.8103ZM98.7586 67.8966V74.069H86.4138V67.8966H92.5862V61.7241H98.7586V67.8966ZM135.793 77.1552V80.2414H129.621V74.069H135.793V77.1552ZM148.138 83.3276V86.4138H154.31V104.931H148.138V98.7586H141.966V92.5862H135.793V98.7586H123.448V104.931H117.276V111.103H123.448V129.621H117.276V135.793H111.103V141.966H104.931V135.793H98.7586V154.31H104.931V148.138H111.103V154.31H104.931V160.483H98.7586V154.31H92.5862V135.793H98.7586V129.621H104.931V135.793H111.103V117.276H104.931V111.103H98.7586V104.931H104.931V92.5862H111.103V98.7586H123.448V92.5862H129.621V86.4138H141.966V80.2414H148.138V83.3276ZM141.966 89.5V92.5862H148.138V86.4138H141.966V89.5ZM43.2069 95.6724V98.7586H49.3793V104.931H43.2069V98.7586H37.0345V92.5862H43.2069V95.6724ZM61.7241 108.017V111.103H55.5517V104.931H61.7241V108.017ZM61.7241 138.879V141.966H55.5517V135.793H61.7241V138.879ZM86.4138 141.966V148.138H80.2414V135.793H86.4138V141.966ZM123.448 169.741V172.828H117.276V166.655H123.448V169.741ZM172.828 3.08621V6.17241H179V0H172.828V3.08621ZM172.828 92.5862V98.7586H166.655V104.931H172.828V98.7586H179V86.4138H172.828V92.5862ZM0 157.397V179H43.2069V135.793H0V157.397ZM37.0345 157.397V172.828H6.17241V141.966H37.0345V157.397ZM12.3448 157.397V166.655H30.8621V148.138H12.3448V157.397ZM135.793 157.397V179H179V135.793H135.793V157.397ZM172.828 157.397V172.828H141.966V141.966H172.828V157.397ZM148.138 157.397V166.655H166.655V148.138H148.138V157.397ZM49.3793 157.397V160.483H55.5517V154.31H49.3793V157.397ZM61.7241 163.569V166.655H55.5517V179H61.7241V172.828H67.8966V179H74.069V172.828H67.8966V160.483H61.7241V163.569Z" fill="black"/>
</g>
<defs>
<clipPath id="clip0_283_7016">
<rect width="179" height="179" fill="white" transform="matrix(1 0 0 -1 0 179)"/>
</clipPath>
</defs>
</svg>
